<?xml version="1.0" encoding="UTF-8"?>
<svg width="34px" height="24px" viewBox="0 0 34 24" version="1.1" xmlns="http://www.w3.org/2000/svg" xmlns:xlink="http://www.w3.org/1999/xlink">
    <title>移动云新版logo</title>
    <defs>
        <linearGradient x1="96.6879518%" y1="50.3818182%" x2="3.58433735%" y2="50.3818182%" id="linearGradient-1">
            <stop stop-color="#FFFFFF" offset="0%"></stop>
            <stop stop-color="#FBFAFA" offset="12.96%"></stop>
            <stop stop-color="#EAE7E5" offset="26.71%"></stop>
            <stop stop-color="#CFC9C5" offset="40.82%"></stop>
            <stop stop-color="#ABA19A" offset="55.19%"></stop>
            <stop stop-color="#81736B" offset="69.76%"></stop>
            <stop stop-color="#53453E" offset="84.49%"></stop>
            <stop stop-color="#261A17" offset="99.09%"></stop>
            <stop stop-color="#231815" offset="100%"></stop>
        </linearGradient>
    </defs>
    <g id="控件" stroke="none" stroke-width="1" fill="none" fill-rule="evenodd">
        <g id="导航/nav1" transform="translate(-79.000000, -10.000000)">
            <g id="移动云新版logo" transform="translate(79.000000, 10.000000)">
                <g id="编组-6" transform="translate(0.000000, 0.000000)">
                    <path d="M24.5866321,5.79310345 L22.9253731,5.79310345 C21.7624919,2.4 18.6060999,0 14.8682674,0 C10.9643089,0 7.64179104,2.64827586 6.64503569,6.20689655 C2.82414017,7.03448276 0,10.4275862 0,14.4827586 C0,18.2068966 2.40882544,21.3517241 5.64828034,22.5103448 L6.22972096,20.4413793 C3.82089552,19.5310345 2.07657365,17.2137931 2.07657365,14.4827586 C2.07657365,11.6689655 3.90395847,9.35172414 6.31278391,8.44137931 C6.97728748,8.19310345 7.72485399,8.11034483 8.38935756,8.11034483 C8.38935756,7.36551724 8.6385464,6.70344828 8.88773524,6.04137931 C9.88449059,3.72413793 12.1271901,2.06896552 14.7852044,2.06896552 C17.3601557,2.06896552 19.6028553,3.55862069 20.5996106,5.79310345 C20.8487995,6.45517241 21.0979883,7.11724138 21.1810513,7.77931034 C21.2641142,7.77931034 21.3471772,7.77931034 21.3471772,7.77931034 L23.2576249,7.77931034 L24.5035691,7.77931034 C28.2414017,7.77931034 31.3147307,10.8413793 31.3147307,14.5655172 C31.3147307,18.2896552 28.2414017,21.3517241 24.5035691,21.3517241 L21.3471772,21.3517241 C21.0979883,21.3517241 20.8487995,21.3517241 20.5996106,21.3517241 L20.6826736,23.4206897 C20.9318624,23.4206897 21.0979883,23.4206897 21.3471772,23.4206897 L24.5035691,23.4206897 C29.4042829,23.4206897 33.3913043,19.4482759 33.3913043,14.5655172 C33.3913043,9.68275862 29.5704088,5.79310345 24.5866321,5.79310345 Z" id="路径" fill="#FFFFFF"></path>
                    <path d="M27.5768981,20.7724138 C26.6632057,21.1862069 25.6664504,21.4344828 24.5866321,21.4344828 L21.4302401,21.4344828 C21.1810513,21.4344828 20.9318624,21.4344828 20.6826736,21.4344828 L20.7657365,23.5034483 C21.0149254,23.5034483 21.1810513,23.5034483 21.4302401,23.5034483 L24.5866321,23.5034483 C25.5003245,23.5034483 26.4140169,23.337931 27.2446463,23.0896552 L27.5768981,20.7724138 Z" id="路径" fill="url(#linearGradient-1)"></path>
                    <g id="分组" transform="translate(6.645036, 9.931034)" fill="#FFFFFF">
                        <path d="M19.0214147,7.77931034 L16.7787151,7.77931034 L14.7021415,7.77931034 L14.1207008,9.84827586 L16.6956522,9.84827586 C16.5295263,10.1793103 16.3634004,10.4275862 16.1142116,10.6758621 C15.1174562,11.6689655 13.3731343,11.7517241 12.376379,10.6758621 C11.2965607,9.43448276 9.21998702,6.70344828 8.14016872,5.46206897 C6.89422453,4.05517241 4.90071382,3.72413793 3.15639195,4.3862069 L3.65476963,2.56551724 L7.89097988,2.56551724 L8.47242051,0.496551724 L4.23621025,0.496551724 L2.1596366,0.496551724 L1.57819598,2.56551724 L0.415314731,7.44827586 C0.415314731,7.53103448 0.332251785,7.69655172 0.332251785,7.77931034 L2.49188838,7.77931034 L2.57495133,7.77931034 C2.74107722,7.44827586 2.90720311,7.2 3.15639195,6.95172414 C4.15314731,5.95862069 5.89746918,5.87586207 6.89422453,6.95172414 C8.05710578,8.19310345 10.0506165,10.9241379 11.1304348,12.1655172 C12.8747567,14.0689655 15.9480857,13.9862069 17.7754705,12.1655172 C18.9383517,11.0068966 19.3536665,9.26896552 19.0214147,7.77931034 Z" id="路径"></path>
                    </g>
                    <path d="M23.3406879,15.6413793 C23.174562,15.6413793 23.091499,15.7241379 23.091499,15.8896552 C23.091499,16.0551724 23.174562,16.137931 23.3406879,16.137931 C23.5068138,16.137931 23.5898767,16.0551724 23.5898767,15.8896552 C23.5898767,15.7241379 23.4237508,15.6413793 23.3406879,15.6413793 Z M23.4237508,15.3103448 C23.4237508,15.4758621 23.5068138,15.5586207 23.6729396,15.5586207 C23.8390655,15.5586207 23.9221285,15.4758621 23.9221285,15.3103448 C23.9221285,15.1448276 23.8390655,15.062069 23.6729396,15.062069 C23.5898767,15.062069 23.4237508,15.1448276 23.4237508,15.3103448 Z M24.2543803,15.5586207 C24.0882544,15.5586207 24.0051914,15.6413793 24.0051914,15.8068966 C24.0051914,15.9724138 24.0882544,16.0551724 24.2543803,16.0551724 C24.4205062,16.0551724 24.5035691,15.9724138 24.5035691,15.8068966 C24.5035691,15.6413793 24.4205062,15.5586207 24.2543803,15.5586207 Z M24.2543803,16.8 C24.1713173,16.8 24.0882544,16.8827586 24.0882544,16.9655172 C24.0882544,17.0482759 24.1713173,17.1310345 24.2543803,17.1310345 C24.3374432,17.1310345 24.4205062,17.0482759 24.4205062,16.9655172 C24.5035691,16.8827586 24.4205062,16.8 24.2543803,16.8 Z M24.7527579,16.137931 C24.669695,16.137931 24.5035691,16.2206897 24.5035691,16.3862069 C24.5035691,16.4689655 24.5866321,16.6344828 24.7527579,16.6344828 C24.8358209,16.6344828 25.0019468,16.5517241 25.0019468,16.3862069 C25.0019468,16.2206897 24.8358209,16.137931 24.7527579,16.137931 Z M25.1680727,16.8 C25.0850097,16.8 24.9188838,16.8827586 24.9188838,17.0482759 C24.9188838,17.1310345 25.0019468,17.2965517 25.1680727,17.2965517 C25.2511356,17.2965517 25.4172615,17.2137931 25.4172615,17.0482759 C25.3341986,16.8827586 25.2511356,16.8 25.1680727,16.8 Z M23.8390655,16.137931 C23.7560026,16.137931 23.5898767,16.2206897 23.5898767,16.3862069 C23.5898767,16.5517241 23.6729396,16.6344828 23.8390655,16.6344828 C24.0051914,16.6344828 24.0882544,16.5517241 24.0882544,16.3862069 C24.0882544,16.2206897 24.0051914,16.137931 23.8390655,16.137931 Z M23.4237508,16.8 C23.3406879,16.8 23.2576249,16.8827586 23.2576249,16.9655172 C23.2576249,17.0482759 23.3406879,17.1310345 23.4237508,17.1310345 C23.5068138,17.1310345 23.5898767,17.0482759 23.5898767,16.9655172 C23.5898767,16.8827586 23.5068138,16.8 23.4237508,16.8 Z M22.9253731,16.2206897 C22.8423102,16.2206897 22.6761843,16.3034483 22.6761843,16.4689655 C22.6761843,16.6344828 22.7592472,16.7172414 22.9253731,16.7172414 C23.0084361,16.7172414 23.174562,16.6344828 23.174562,16.4689655 C23.174562,16.3034483 23.091499,16.2206897 22.9253731,16.2206897 Z M22.9253731,15.9724138 C22.9253731,15.8896552 22.9253731,15.8896552 22.9253731,15.8068966 C22.8423102,15.7241379 22.8423102,15.6413793 22.8423102,15.5586207 C22.8423102,15.4758621 22.9253731,15.3931034 23.0084361,15.3931034 C23.091499,15.3931034 23.091499,15.3931034 23.174562,15.3931034 C23.2576249,15.3931034 23.2576249,15.3931034 23.3406879,15.3103448 C23.3406879,15.3103448 23.3406879,15.2275862 23.3406879,15.1448276 C23.2576249,15.062069 23.2576249,14.9793103 23.2576249,14.8965517 C23.2576249,14.8137931 23.3406879,14.7310345 23.4237508,14.7310345 C23.5068138,14.7310345 23.5068138,14.7310345 23.5898767,14.7310345 C23.5898767,14.7310345 23.6729396,14.7310345 23.6729396,14.7310345 C23.6729396,14.7310345 23.6729396,14.6482759 23.6729396,14.6482759 C21.8455548,13.4896552 19.3536665,13.6551724 17.8585334,15.3103448 C17.5262816,15.7241379 17.1109669,16.2206897 16.6125892,16.8 C16.8617781,17.1310345 17.1940299,17.5448276 17.4432187,17.8758621 C17.6093446,18.0413793 17.7754705,18.2896552 17.9415964,18.4551724 C18.439974,17.7931034 18.9383517,17.2137931 19.3536665,16.8 C20.1842959,15.8896552 21.596366,15.8068966 22.5931213,16.4689655 C22.5931213,16.4689655 22.6761843,16.4689655 22.6761843,16.4689655 C22.6761843,16.4689655 22.6761843,16.3862069 22.6761843,16.3862069 C22.5931213,16.3034483 22.5931213,16.2206897 22.5931213,16.137931 C22.5931213,16.0551724 22.6761843,15.9724138 22.7592472,15.9724138 C22.8423102,15.9724138 22.8423102,15.9724138 22.8423102,15.9724138 C22.8423102,16.0551724 22.8423102,16.0551724 22.9253731,15.9724138 Z M22.8423102,14.4827586 C23.0084361,14.4827586 23.091499,14.5655172 23.091499,14.7310345 C23.091499,14.8965517 23.0084361,14.9793103 22.8423102,14.9793103 C22.6761843,14.9793103 22.5931213,14.8965517 22.5931213,14.7310345 C22.5931213,14.5655172 22.6761843,14.4827586 22.8423102,14.4827586 Z M22.0947437,14.3172414 C22.2608696,14.3172414 22.3439325,14.4 22.3439325,14.5655172 C22.3439325,14.7310345 22.2608696,14.8137931 22.0947437,14.8137931 C21.9286178,14.8137931 21.8455548,14.7310345 21.8455548,14.5655172 C21.8455548,14.4 21.9286178,14.3172414 22.0947437,14.3172414 Z M21.3471772,14.1517241 C21.4302401,14.1517241 21.596366,14.2344828 21.596366,14.4 C21.596366,14.4827586 21.513303,14.6482759 21.3471772,14.6482759 C21.2641142,14.6482759 21.0979883,14.5655172 21.0979883,14.4 C21.1810513,14.3172414 21.2641142,14.1517241 21.3471772,14.1517241 Z M20.4334848,14.4 C20.4334848,14.3172414 20.5165477,14.1517241 20.6826736,14.1517241 C20.8487995,14.1517241 20.9318624,14.2344828 20.9318624,14.4 C20.9318624,14.4827586 20.8487995,14.6482759 20.6826736,14.6482759 C20.5165477,14.6482759 20.4334848,14.4827586 20.4334848,14.4 Z M20.9318624,15.3103448 C20.8487995,15.3103448 20.6826736,15.2275862 20.6826736,15.062069 C20.6826736,14.8965517 20.7657365,14.8137931 20.9318624,14.8137931 C21.0149254,14.8137931 21.1810513,14.8965517 21.1810513,15.062069 C21.1810513,15.2275862 21.0979883,15.3103448 20.9318624,15.3103448 Z M21.3471772,15.9724138 C21.1810513,15.9724138 21.0979883,15.8896552 21.0979883,15.7241379 C21.0979883,15.5586207 21.1810513,15.4758621 21.3471772,15.4758621 C21.513303,15.4758621 21.596366,15.5586207 21.596366,15.7241379 C21.596366,15.8896552 21.513303,15.9724138 21.3471772,15.9724138 Z M21.7624919,15.3931034 C21.596366,15.3931034 21.513303,15.3103448 21.513303,15.1448276 C21.513303,14.9793103 21.596366,14.8965517 21.7624919,14.8965517 C21.9286178,14.8965517 22.0116807,14.9793103 22.0116807,15.1448276 C21.9286178,15.3103448 21.8455548,15.3931034 21.7624919,15.3931034 Z M22.1778066,16.2206897 C22.0116807,16.2206897 21.9286178,16.137931 21.9286178,15.9724138 C21.9286178,15.8068966 22.0116807,15.7241379 22.1778066,15.7241379 C22.3439325,15.7241379 22.4269955,15.8068966 22.4269955,15.9724138 C22.4269955,16.0551724 22.2608696,16.2206897 22.1778066,16.2206897 Z M22.5100584,15.5586207 C22.3439325,15.5586207 22.2608696,15.4758621 22.2608696,15.3103448 C22.2608696,15.1448276 22.3439325,15.062069 22.5100584,15.062069 C22.6761843,15.062069 22.7592472,15.1448276 22.7592472,15.3103448 C22.7592472,15.4758621 22.5931213,15.5586207 22.5100584,15.5586207 Z" id="形状" fill="#FFFFFF" fill-rule="nonzero"></path>
                    <path d="M7.5587281,19.7793103 C7.5587281,19.6965517 7.47566515,19.5310345 7.39260221,19.5310345 C7.30953926,19.5310345 7.14341337,19.6137931 7.14341337,19.6965517 C7.14341337,19.7793103 7.22647631,19.9448276 7.30953926,19.9448276 C7.47566515,20.0275862 7.5587281,19.9448276 7.5587281,19.7793103 Z M7.80791694,20.5241379 C7.80791694,20.4413793 7.72485399,20.2758621 7.5587281,20.2758621 C7.47566515,20.2758621 7.30953926,20.3586207 7.30953926,20.5241379 C7.39260221,20.6068966 7.47566515,20.6896552 7.5587281,20.6896552 C7.72485399,20.7724138 7.80791694,20.6068966 7.80791694,20.5241379 Z M7.89097988,20.8551724 C7.72485399,20.8551724 7.64179104,20.937931 7.64179104,21.1034483 C7.64179104,21.2689655 7.72485399,21.3517241 7.89097988,21.3517241 C8.05710578,21.3517241 8.14016872,21.2689655 8.14016872,21.1034483 C8.14016872,21.0206897 8.05710578,20.8551724 7.89097988,20.8551724 Z M9.88449059,21.4344828 C10.0506165,21.4344828 10.1336794,21.3517241 10.1336794,21.1862069 C10.1336794,21.0206897 10.0506165,20.937931 9.88449059,20.937931 C9.7183647,20.937931 9.63530175,21.0206897 9.63530175,21.1862069 C9.63530175,21.3517241 9.7183647,21.4344828 9.88449059,21.4344828 Z M8.14016872,20.0275862 C8.22323167,20.0275862 8.38935756,19.9448276 8.38935756,19.862069 C8.38935756,19.7793103 8.30629461,19.6137931 8.22323167,19.6137931 C8.14016872,19.6137931 7.97404283,19.6965517 7.97404283,19.7793103 C7.89097988,19.9448276 7.97404283,20.0275862 8.14016872,20.0275862 Z M8.38935756,21.4344828 C8.22323167,21.4344828 8.14016872,21.5172414 8.14016872,21.6827586 C8.14016872,21.8482759 8.22323167,21.9310345 8.38935756,21.9310345 C8.55548345,21.9310345 8.6385464,21.8482759 8.6385464,21.6827586 C8.6385464,21.5172414 8.47242051,21.4344828 8.38935756,21.4344828 Z M9.21998702,20.7724138 C9.30304997,20.7724138 9.46917586,20.6896552 9.46917586,20.5241379 C9.46917586,20.4413793 9.38611291,20.2758621 9.21998702,20.2758621 C9.13692408,20.2758621 8.97079818,20.3586207 8.97079818,20.5241379 C9.05386113,20.6896552 9.13692408,20.7724138 9.21998702,20.7724138 Z M8.88773524,20.0275862 C8.97079818,20.0275862 9.05386113,19.9448276 9.05386113,19.862069 C9.05386113,19.7793103 8.97079818,19.6965517 8.88773524,19.6965517 C8.80467229,19.6965517 8.72160934,19.7793103 8.72160934,19.862069 C8.72160934,19.862069 8.80467229,20.0275862 8.88773524,20.0275862 Z M9.13692408,21.6827586 C9.13692408,21.8482759 9.21998702,21.9310345 9.38611291,21.9310345 C9.55223881,21.9310345 9.63530175,21.8482759 9.63530175,21.6827586 C9.63530175,21.5172414 9.55223881,21.4344828 9.38611291,21.4344828 C9.30304997,21.4344828 9.21998702,21.5172414 9.13692408,21.6827586 Z M8.22323167,20.5241379 C8.22323167,20.6068966 8.30629461,20.7724138 8.47242051,20.7724138 C8.55548345,20.7724138 8.72160934,20.6896552 8.72160934,20.5241379 C8.72160934,20.4413793 8.6385464,20.2758621 8.47242051,20.2758621 C8.30629461,20.2758621 8.22323167,20.3586207 8.22323167,20.5241379 Z M8.80467229,21.3517241 C8.97079818,21.3517241 9.05386113,21.2689655 9.05386113,21.1034483 C9.05386113,20.937931 8.97079818,20.8551724 8.80467229,20.8551724 C8.6385464,20.8551724 8.55548345,20.937931 8.55548345,21.1034483 C8.6385464,21.2689655 8.72160934,21.3517241 8.80467229,21.3517241 Z M14.8682674,18.9517241 C14.3698897,19.6137931 13.871512,20.1931034 13.4561973,20.6068966 C12.7086308,21.4344828 11.4626866,21.6 10.4659312,21.1034483 C10.4659312,21.1034483 10.3828683,21.1034483 10.3828683,21.1034483 L10.3828683,21.1034483 C10.3828683,21.1034483 10.3828683,21.1862069 10.3828683,21.1862069 C10.3828683,21.2689655 10.4659312,21.2689655 10.3828683,21.3517241 C10.3828683,21.4344828 10.2998053,21.5172414 10.2167424,21.5172414 C10.1336794,21.5172414 10.0506165,21.5172414 10.0506165,21.5172414 C10.0506165,21.5172414 9.96755354,21.5172414 9.96755354,21.5172414 L9.96755354,21.5172414 C9.96755354,21.5172414 9.96755354,21.6 9.96755354,21.6 C9.96755354,21.6827586 9.96755354,21.7655172 9.96755354,21.7655172 C9.96755354,21.8482759 9.88449059,21.9310345 9.80142764,21.9310345 C9.7183647,21.9310345 9.63530175,21.9310345 9.63530175,21.9310345 C9.63530175,21.9310345 9.55223881,21.9310345 9.55223881,21.9310345 L9.55223881,21.9310345 C9.55223881,21.9310345 9.55223881,22.0137931 9.55223881,22.0137931 C9.55223881,22.0965517 9.55223881,22.0965517 9.55223881,22.1793103 C9.55223881,22.262069 9.46917586,22.3448276 9.46917586,22.3448276 C9.38611291,22.4275862 9.30304997,22.3448276 9.21998702,22.3448276 C9.21998702,22.3448276 9.13692408,22.3448276 9.13692408,22.3448276 C9.13692408,22.3448276 9.13692408,22.4275862 9.13692408,22.4275862 C10.9643089,23.6689655 13.5392602,23.5034483 15.1174562,21.8482759 C15.449708,21.4344828 15.8650227,20.937931 16.3634004,20.3586207 C16.1142116,20.1103448 15.8650227,19.7793103 15.6988968,19.4482759 C15.2835821,19.4482759 15.0343933,19.2 14.8682674,18.9517241 Z M11.3796236,21.6 C11.4626866,21.6 11.6288125,21.6827586 11.6288125,21.8482759 C11.6288125,22.0137931 11.5457495,22.0965517 11.3796236,22.0965517 C11.2965607,22.0965517 11.1304348,22.0137931 11.1304348,21.8482759 C11.1304348,21.6827586 11.2134977,21.6 11.3796236,21.6 Z M10.7151201,21.4344828 C10.8812459,21.4344828 10.9643089,21.5172414 10.9643089,21.6827586 C10.9643089,21.8482759 10.8812459,21.9310345 10.7151201,21.9310345 C10.5489942,21.9310345 10.4659312,21.8482759 10.4659312,21.6827586 C10.4659312,21.5172414 10.6320571,21.4344828 10.7151201,21.4344828 Z M9.88449059,23.0068966 C9.7183647,23.0068966 9.63530175,22.9241379 9.63530175,22.7586207 C9.63530175,22.5931034 9.7183647,22.5103448 9.88449059,22.5103448 C10.0506165,22.5103448 10.1336794,22.5931034 10.1336794,22.7586207 C10.1336794,22.8413793 9.96755354,23.0068966 9.88449059,23.0068966 Z M10.0506165,22.1793103 C10.0506165,22.0137931 10.1336794,21.9310345 10.2998053,21.9310345 C10.4659312,21.9310345 10.5489942,22.0137931 10.5489942,22.1793103 C10.5489942,22.3448276 10.4659312,22.4275862 10.2998053,22.4275862 C10.1336794,22.4275862 10.0506165,22.3448276 10.0506165,22.1793103 Z M10.5489942,23.1724138 C10.3828683,23.1724138 10.2998053,23.0896552 10.2998053,22.9241379 C10.2998053,22.7586207 10.3828683,22.6758621 10.5489942,22.6758621 C10.7151201,22.6758621 10.798183,22.7586207 10.798183,22.9241379 C10.798183,23.0896552 10.7151201,23.1724138 10.5489942,23.1724138 Z M10.7151201,22.4275862 C10.7151201,22.262069 10.798183,22.1793103 10.9643089,22.1793103 C11.1304348,22.1793103 11.2134977,22.262069 11.2134977,22.4275862 C11.2134977,22.5931034 11.1304348,22.6758621 10.9643089,22.6758621 C10.798183,22.6758621 10.7151201,22.5103448 10.7151201,22.4275862 Z M11.2965607,23.337931 C11.2134977,23.337931 11.0473718,23.2551724 11.0473718,23.0896552 C11.0473718,23.0068966 11.1304348,22.8413793 11.2965607,22.8413793 C11.3796236,22.8413793 11.5457495,22.9241379 11.5457495,23.0896552 C11.4626866,23.2551724 11.3796236,23.337931 11.2965607,23.337931 Z M11.6288125,22.6758621 C11.5457495,22.6758621 11.3796236,22.5931034 11.3796236,22.4275862 C11.3796236,22.262069 11.4626866,22.1793103 11.6288125,22.1793103 C11.7118754,22.1793103 11.8780013,22.262069 11.8780013,22.4275862 C11.8780013,22.5931034 11.7949384,22.6758621 11.6288125,22.6758621 Z M12.0441272,23.337931 C11.9610642,23.337931 11.7949384,23.2551724 11.7949384,23.0896552 C11.7949384,22.9241379 11.8780013,22.8413793 12.0441272,22.8413793 C12.1271901,22.8413793 12.293316,22.9241379 12.293316,23.0896552 C12.293316,23.2551724 12.1271901,23.337931 12.0441272,23.337931 Z M9.21998702,22.1793103 C9.21998702,22.0137931 9.13692408,21.9310345 8.97079818,21.9310345 C8.80467229,21.9310345 8.72160934,22.0137931 8.72160934,22.1793103 C8.72160934,22.3448276 8.80467229,22.4275862 8.97079818,22.4275862 C9.05386113,22.4275862 9.21998702,22.3448276 9.21998702,22.1793103 Z" id="形状" fill="#FFFFFF" fill-rule="nonzero"></path>
                </g>
            </g>
        </g>
    </g>
</svg>